<mxfile host="app.diagrams.net" modified="2023-05-18T13:51:29.078Z" agent="5.0 (Macintosh; Intel Mac OS X 10_15_7) AppleWebKit/537.36 (KHTML, like Gecko) Chrome/112.0.0.0 Safari/537.36" etag="szvHwQsAp2STsRoDuY5z" version="20.8.23" type="github">
  <diagram name="第 1 页" id="JNN2XqwtY81Ai9hGCX-i">
    <mxGraphModel dx="1784" dy="1182" grid="0" gridSize="10" guides="1" tooltips="1" connect="1" arrows="1" fold="1" page="1" pageScale="1" pageWidth="1920" pageHeight="1200" math="0" shadow="0">
      <root>
        <mxCell id="0" />
        <mxCell id="1" parent="0" />
        <mxCell id="AfIWFI06FYcAjWY9-FY9-1" value="" style="rounded=1;whiteSpace=wrap;html=1;arcSize=12;" vertex="1" parent="1">
          <mxGeometry x="160" y="110" width="514" height="278" as="geometry" />
        </mxCell>
      </root>
    </mxGraphModel>
  </diagram>
</mxfile>
